<?xml version="1.0" encoding="UTF-8" ?>
<!DOCTYPE svg
  PUBLIC '-//W3C//DTD SVG 1.1//EN'
  'http://www.w3.org/Graphics/SVG/1.1/DTD/svg11.dtd'>
<svg height="284pt" version="1.1" viewBox="0 0 802 284" width="802pt" xmlns="http://www.w3.org/2000/svg">
	<g id="#e3ba5dff">
		<path d=" M 478.07 46.37 C 484.91 46.42 491.76 46.42 498.61 46.38 C 498.66 64.31 498.37 82.25 498.76 100.18 C 504.64 94.96 510.94 89.89 518.62 87.66 C 535.34 82.54 555.03 85.96 568.10 97.89 C 589.78 117.45 589.77 155.64 568.43 175.43 C 557.16 185.94 541.13 190.40 525.96 189.15 C 512.85 188.06 501.12 181.05 491.29 172.72 C 473.31 157.32 459.96 137.43 442.57 121.42 C 436.77 115.67 429.72 111.49 422.92 107.06 C 432.48 109.90 441.31 114.75 449.28 120.71 C 461.21 129.67 472.30 139.67 483.66 149.33 C 492.58 156.61 501.80 164.64 513.43 166.95 C 516.85 167.95 520.02 169.68 523.53 170.40 C 532.34 172.36 542.09 170.82 549.45 165.47 C 555.71 161.07 559.98 154.17 561.84 146.81 C 564.29 135.40 562.52 122.43 554.42 113.57 C 542.98 100.51 520.54 100.09 508.44 112.44 C 500.54 120.04 498.10 131.46 498.61 142.06 C 492.06 135.38 485.82 128.40 479.74 121.29 C 477.17 118.50 477.84 114.46 477.73 110.99 C 478.01 89.45 477.38 67.90 478.07 46.37 Z" fill="#e3ba5d" opacity="1.00"/>
	</g>
	<g id="#74262cff">
		<path d=" M 604.34 46.32 C 611.20 46.36 618.06 46.36 624.92 46.32 C 625.26 93.35 624.99 140.39 625.05 187.42 C 618.14 187.46 611.23 187.44 604.32 187.43 C 604.38 140.40 604.34 93.36 604.34 46.32 Z" fill="#74262c" opacity="1.00"/>
		<path d=" M 232.54 86.03 C 235.27 86.02 237.93 86.83 240.50 87.70 C 234.92 88.74 229.22 88.87 223.61 89.68 C 221.25 88.71 218.89 87.74 216.55 86.73 C 216.89 86.63 217.57 86.43 217.91 86.33 C 222.78 86.84 227.70 86.84 232.54 86.03 Z" fill="#74262c" opacity="1.00"/>
		<path d=" M 653.25 108.20 C 661.43 95.59 675.71 87.43 690.59 86.01 C 696.20 86.66 701.85 86.63 707.48 86.17 C 722.97 87.87 737.61 97.20 745.12 110.95 C 750.71 120.66 752.47 132.11 751.50 143.17 C 750.09 143.80 748.50 143.55 747.02 143.63 C 719.81 143.58 692.60 143.57 665.40 143.64 C 666.94 151.45 670.46 159.11 676.69 164.27 C 686.24 172.73 700.81 174.56 712.35 169.33 C 720.08 165.86 726.27 159.26 729.27 151.34 C 736.27 151.38 743.28 151.31 750.29 151.38 C 746.71 164.61 737.43 175.95 725.38 182.40 C 711.14 190.40 693.42 191.26 678.14 185.79 C 664.21 180.78 652.54 169.45 647.83 155.33 C 642.68 139.88 644.20 121.94 653.25 108.20 M 677.57 109.57 C 671.82 114.09 668.09 120.65 666.04 127.60 C 688.01 127.70 709.97 127.70 731.94 127.60 C 730.55 123.17 728.81 118.77 725.86 115.13 C 714.82 100.66 691.62 98.14 677.57 109.57 Z" fill="#74262c" opacity="1.00"/>
	</g>
	<g id="#759da0ff">
		<path d=" M 366.56 101.55 C 377.01 90.28 392.81 84.52 408.06 85.32 C 419.62 85.67 430.54 90.61 440.01 96.98 C 456.57 108.50 469.65 124.06 482.97 139.01 C 488.92 145.71 495.21 152.14 502.12 157.85 C 505.88 160.90 510.09 163.40 513.43 166.95 C 501.80 164.64 492.58 156.61 483.66 149.33 C 472.30 139.67 461.21 129.67 449.28 120.71 C 441.31 114.75 432.48 109.90 422.92 107.06 C 415.39 104.22 407.20 102.33 399.19 104.24 C 387.36 106.58 377.87 116.66 375.40 128.34 C 372.28 141.37 376.14 156.60 387.12 164.87 C 400.04 174.84 420.74 172.92 431.04 160.04 C 438.07 151.92 439.22 140.74 438.56 130.44 C 444.86 136.15 450.31 142.69 455.98 149.00 C 457.69 150.98 459.79 153.07 459.46 155.94 C 459.48 166.42 459.47 176.91 459.40 187.40 C 452.49 187.44 445.59 187.47 438.68 187.37 C 438.65 182.89 438.64 178.41 438.63 173.93 C 422.00 191.76 391.76 194.57 372.42 179.58 C 349.02 161.57 346.40 122.94 366.56 101.55 Z" fill="#759da0" opacity="1.00"/>
	</g>
	<g id="#650648ff">
		<path d=" M 64.08 102.06 C 72.33 92.87 84.27 87.14 96.53 86.06 C 101.79 86.84 107.13 86.81 112.40 86.07 C 131.38 87.77 149.19 101.21 154.53 119.74 C 148.66 127.44 142.39 134.83 136.04 142.15 C 137.08 131.78 134.52 120.54 127.06 112.93 C 115.17 100.02 92.05 100.21 80.46 113.45 C 69.92 125.04 68.71 143.74 77.20 156.81 C 82.04 163.88 89.54 169.24 98.04 170.77 C 108.78 173.04 119.63 168.39 128.21 162.19 C 142.68 151.33 153.01 136.23 164.51 122.49 C 174.08 110.77 184.55 99.19 198.07 91.97 C 204.47 88.78 211.42 86.12 218.67 86.09 L 217.91 86.33 C 217.57 86.43 216.89 86.63 216.55 86.73 C 218.89 87.74 221.25 88.71 223.61 89.68 C 214.40 92.02 205.66 96.27 198.21 102.18 C 186.42 111.39 176.95 123.11 167.84 134.87 C 156.66 149.24 145.90 164.08 132.58 176.59 C 127.59 181.33 121.55 184.74 115.85 188.53 C 99.88 191.57 82.56 185.93 71.69 173.75 C 71.48 187.83 71.65 201.91 71.60 216.00 C 71.52 219.97 71.91 223.98 71.22 227.92 L 70.87 227.61 C 70.47 209.65 71.25 191.67 70.47 173.73 C 69.98 191.73 70.20 209.76 70.35 227.77 C 64.13 229.10 57.61 227.97 51.27 228.38 C 51.27 197.92 51.24 167.47 51.28 137.01 C 50.96 124.32 55.41 111.42 64.08 102.06 M 70.33 134.87 C 69.37 136.35 69.38 138.66 70.34 140.14 C 71.84 139.46 71.84 135.53 70.33 134.87 Z" fill="#650648" opacity="1.00"/>
	</g>
	<g id="#130c0eff">
		<path d=" M 96.53 86.06 C 101.78 85.39 107.15 85.36 112.40 86.07 C 107.13 86.81 101.79 86.84 96.53 86.06 Z" fill="#130c0e" opacity="1.00"/>
		<path d=" M 218.67 86.09 C 223.21 85.12 227.95 85.60 232.54 86.03 C 227.70 86.84 222.78 86.84 217.91 86.33 L 218.67 86.09 Z" fill="#130c0e" opacity="1.00"/>
		<path d=" M 690.59 86.01 C 696.19 85.45 701.90 85.33 707.48 86.17 C 701.85 86.63 696.20 86.66 690.59 86.01 Z" fill="#130c0e" opacity="1.00"/>
		<path d=" M 223.61 89.68 C 229.22 88.87 234.92 88.74 240.50 87.70 C 253.84 90.71 265.63 99.90 271.86 112.07 C 275.61 119.46 277.72 127.72 277.60 136.02 C 277.73 153.17 277.59 170.32 277.67 187.47 C 270.90 187.43 264.14 187.42 257.37 187.47 C 257.39 182.86 257.40 178.24 257.37 173.62 C 241.19 191.19 211.85 194.60 192.34 180.68 C 183.83 174.38 176.94 165.45 174.23 155.12 C 174.73 153.26 176.31 151.94 177.38 150.40 C 182.43 143.82 187.63 137.37 193.25 131.28 C 191.53 142.06 194.24 153.98 202.17 161.82 C 213.50 174.03 234.93 174.36 246.79 162.76 C 261.34 149.40 260.68 123.18 245.48 110.55 C 235.16 101.88 219.28 101.12 207.85 108.03 C 199.50 112.56 191.99 118.57 185.59 125.58 C 170.80 141.23 159.46 159.91 143.47 174.45 C 136.09 181.94 126.30 187.09 115.85 188.53 C 121.55 184.74 127.59 181.33 132.58 176.59 C 145.90 164.08 156.66 149.24 167.84 134.87 C 176.95 123.11 186.42 111.39 198.21 102.18 C 205.66 96.27 214.40 92.02 223.61 89.68 Z" fill="#130c0e" opacity="1.00"/>
		<path d=" M 70.33 134.87 C 71.84 135.53 71.84 139.46 70.34 140.14 C 69.38 138.66 69.37 136.35 70.33 134.87 Z" fill="#130c0e" opacity="1.00"/>
		<path d=" M 70.47 173.73 C 71.25 191.67 70.47 209.65 70.87 227.61 L 70.35 227.77 C 70.20 209.76 69.98 191.73 70.47 173.73 Z" fill="#130c0e" opacity="1.00"/>
		<path d=" M 625.00 206.56 C 627.18 206.55 629.37 206.53 631.55 206.49 C 631.50 208.36 631.47 210.23 631.46 212.10 C 629.36 212.10 627.26 212.09 625.17 212.08 C 625.13 210.24 625.08 208.40 625.00 206.56 Z" fill="#130c0e" opacity="1.00"/>
		<path d=" M 659.59 206.24 C 661.51 206.21 663.43 206.15 665.36 206.04 C 665.37 210.59 665.35 215.14 665.37 219.69 C 667.72 217.46 670.54 215.25 673.99 215.49 C 678.40 215.30 682.41 218.88 682.78 223.27 C 683.31 229.53 682.87 235.82 683.00 242.10 C 681.04 242.09 679.09 242.10 677.15 242.10 C 677.12 235.92 678.02 229.56 676.31 223.53 C 673.94 219.17 666.44 220.54 665.56 225.38 C 665.10 230.93 665.47 236.53 665.39 242.10 C 663.45 242.10 661.52 242.10 659.60 242.10 C 659.62 230.15 659.62 218.20 659.59 206.24 Z" fill="#130c0e" opacity="1.00"/>
		<path d=" M 353.04 207.65 C 361.08 208.03 369.99 206.03 377.10 210.88 C 386.28 216.64 386.74 231.62 377.99 238.01 C 371.00 243.87 361.41 241.71 353.06 242.09 C 353.35 230.62 353.37 219.12 353.04 207.65 M 359.15 213.09 C 359.17 220.95 359.18 228.81 359.14 236.67 C 362.35 236.63 365.57 236.86 368.77 236.52 C 372.71 235.61 376.40 232.76 377.51 228.77 C 378.14 224.52 378.23 219.41 374.62 216.39 C 370.64 212.08 364.39 213.15 359.15 213.09 Z" fill="#130c0e" opacity="1.00"/>
		<path d=" M 640.66 208.67 C 642.43 208.69 644.20 208.66 645.99 208.75 C 646.49 211.21 646.24 213.74 646.35 216.24 C 648.73 216.24 651.11 216.24 653.50 216.22 C 653.46 217.85 653.44 219.49 653.43 221.13 C 651.04 221.18 648.66 221.18 646.28 221.23 C 646.46 225.95 645.90 230.72 646.58 235.41 C 647.77 238.46 651.18 237.32 653.52 236.62 C 653.41 238.14 653.39 239.67 653.18 241.18 C 649.19 243.40 642.29 243.13 640.85 237.91 C 640.42 232.39 640.76 226.84 640.70 221.30 C 639.57 221.21 638.44 221.11 637.31 221.02 C 637.28 219.42 637.25 217.82 637.22 216.23 C 638.08 216.23 639.79 216.23 640.64 216.23 C 640.67 213.71 640.66 211.19 640.66 208.67 Z" fill="#130c0e" opacity="1.00"/>
		<path d=" M 398.42 216.48 C 405.88 213.27 415.61 217.94 417.13 226.07 C 419.44 234.51 411.65 243.36 403.04 242.61 C 395.12 242.81 388.29 234.86 389.88 227.04 C 390.56 222.34 393.90 218.04 398.42 216.48 M 399.55 221.71 C 393.77 224.76 394.27 234.05 400.08 236.80 C 405.26 240.00 412.26 234.77 411.51 228.98 C 411.97 223.00 404.67 218.47 399.55 221.71 Z" fill="#130c0e" opacity="1.00"/>
		<path d=" M 444.19 219.79 C 446.41 217.82 448.82 215.54 452.00 215.51 C 455.31 215.18 458.45 217.05 460.04 219.91 C 463.24 216.55 468.18 214.16 472.76 216.17 C 476.46 217.35 478.11 221.34 478.21 224.94 C 478.39 230.66 478.20 236.38 478.27 242.10 C 476.25 242.09 474.24 242.10 472.24 242.10 C 472.36 237.04 472.38 231.97 472.30 226.91 C 472.26 224.60 471.11 221.90 468.71 221.22 C 465.55 219.84 461.43 222.65 461.33 226.05 C 461.10 231.40 461.32 236.75 461.25 242.10 C 459.31 242.10 457.39 242.10 455.47 242.11 C 455.34 236.44 455.97 230.69 455.10 225.08 C 454.74 221.95 451.10 219.98 448.29 221.23 C 445.70 221.86 444.54 224.62 444.51 227.06 C 444.29 232.07 444.46 237.09 444.45 242.10 C 442.45 242.10 440.47 242.10 438.49 242.10 C 438.54 233.45 438.53 224.81 438.49 216.16 C 440.52 216.20 442.55 216.24 444.58 216.28 C 444.48 217.15 444.29 218.91 444.19 219.79 Z" fill="#130c0e" opacity="1.00"/>
		<path d=" M 492.48 216.63 C 499.54 213.36 508.80 217.23 511.20 224.68 C 512.09 228.87 512.01 233.67 509.25 237.20 C 503.84 244.82 490.47 244.36 486.03 235.96 C 481.86 229.23 485.18 219.55 492.48 216.63 M 495.32 221.14 C 488.45 223.32 488.31 234.36 494.85 237.03 C 499.79 239.51 505.90 235.40 505.95 229.98 C 506.78 224.35 500.81 218.92 495.32 221.14 Z" fill="#130c0e" opacity="1.00"/>
		<path d=" M 518.13 216.24 C 520.13 216.24 522.13 216.24 524.14 216.21 C 524.14 217.83 524.14 219.45 524.16 221.08 C 526.39 218.07 529.29 215.58 533.19 215.20 C 533.24 217.29 533.28 219.37 533.35 221.46 C 529.38 221.95 525.24 224.06 524.38 228.32 C 523.85 232.88 524.27 237.51 524.15 242.10 C 522.11 242.09 520.07 242.09 518.04 242.09 C 518.34 233.48 518.19 224.85 518.13 216.24 Z" fill="#130c0e" opacity="1.00"/>
		<path d=" M 543.67 216.70 C 549.14 213.99 556.74 215.93 559.54 221.55 C 561.24 224.49 561.35 227.96 561.49 231.27 C 554.94 231.39 548.37 231.04 541.83 231.50 C 543.04 234.50 545.28 238.07 549.01 237.74 C 552.02 238.29 554.60 236.73 556.88 234.97 C 557.98 235.97 559.11 236.96 560.24 237.95 C 555.41 243.55 546.18 244.25 540.61 239.41 C 533.64 233.48 535.20 220.44 543.67 216.70 M 542.05 227.30 C 546.68 227.37 551.31 227.41 555.94 227.25 C 554.99 224.30 553.39 220.62 549.79 220.44 C 545.70 219.67 542.42 223.54 542.05 227.30 Z" fill="#130c0e" opacity="1.00"/>
		<path d=" M 580.39 216.10 C 582.37 216.16 584.36 216.22 586.36 216.23 C 588.12 222.10 589.69 228.04 591.71 233.84 C 593.55 227.96 595.43 222.09 597.29 216.22 C 598.97 216.18 600.66 216.11 602.36 216.03 C 604.31 221.91 606.26 227.79 608.00 233.74 C 610.74 228.14 611.86 221.93 613.85 216.05 C 615.77 216.18 617.69 216.24 619.62 216.27 C 616.71 224.91 613.92 233.59 611.03 242.23 C 609.31 242.23 607.59 242.23 605.89 242.24 C 603.90 236.39 601.95 230.52 600.08 224.63 C 597.71 230.36 596.05 236.35 594.08 242.23 C 592.28 242.23 590.50 242.23 588.72 242.24 C 585.94 233.53 583.21 224.80 580.39 216.10 Z" fill="#130c0e" opacity="1.00"/>
		<path d=" M 625.33 216.24 C 627.36 216.24 629.38 216.22 631.41 216.19 C 631.38 224.83 631.40 233.46 631.40 242.10 C 629.37 242.09 627.36 242.10 625.34 242.10 C 625.43 233.48 625.44 224.86 625.33 216.24 Z" fill="#130c0e" opacity="1.00"/>
		<path d=" M 88.84 220.51 C 165.79 220.50 242.75 220.49 319.71 220.51 C 319.69 223.12 319.69 225.73 319.69 228.34 C 242.74 228.35 165.79 228.34 88.84 228.34 C 88.83 225.73 88.83 223.12 88.84 220.51 Z" fill="#130c0e" opacity="1.00"/>
	</g>
	<g id="#b61414ff">
		<path d=" M 310.56 97.55 C 319.81 89.58 332.48 87.33 344.34 87.26 C 344.32 93.02 344.33 98.78 344.33 104.53 C 337.57 104.71 330.19 106.23 325.42 111.42 C 321.15 115.79 319.71 122.07 319.70 128.01 C 319.66 147.83 319.70 167.65 319.68 187.47 C 312.71 187.45 305.75 187.44 298.78 187.48 C 298.78 166.65 298.72 145.83 298.81 125.01 C 298.83 114.80 302.62 104.26 310.56 97.55 Z" fill="#b61414" opacity="1.00"/>
		<path d=" M 718.02 207.44 C 719.93 207.46 721.86 207.47 723.79 207.49 C 728.66 219.13 733.91 230.60 738.91 242.18 C 736.81 241.90 734.26 242.78 732.46 241.54 C 731.05 239.04 730.17 236.29 729.07 233.66 C 723.71 233.64 718.34 233.43 712.99 233.70 C 711.23 236.29 710.31 239.33 709.00 242.15 C 706.97 242.14 704.96 242.14 702.95 242.12 C 707.86 230.52 712.89 218.96 718.02 207.44 M 714.91 228.51 C 718.89 228.56 722.88 228.56 726.87 228.50 C 724.96 223.91 722.92 219.38 720.94 214.82 C 718.58 219.22 716.71 223.86 714.91 228.51 Z" fill="#b61414" opacity="1.00"/>
		<path d=" M 745.21 207.61 C 747.27 207.59 749.33 207.58 751.40 207.58 C 751.37 219.10 751.42 230.63 751.38 242.15 C 749.32 242.15 747.28 242.14 745.23 242.14 C 745.30 230.63 745.35 219.11 745.21 207.61 Z" fill="#b61414" opacity="1.00"/>
	</g>
</svg>